# xmcd
#
# Track frame offsets:
# 150
# 20035
# 38169
# 57758
# 74270
# 89269
# 106760
# 123989
# 138841
# 153548
#
# Disc length: 2344 seconds
#
#
# Revision: 0
# Processed by: cddbd v1.5PL3 Copyright (c) Steve Scherf et al.
# Submitted via: FreeRIP 2.53 
#
DISCID=7e09260a
DTITLE=McEntire, Reba - Greatest Hits, Volume 2
DYEAR=1900
DGENRE=Country
TTITLE0=Does He Love You(Linda Davis)
TTITLE1=You Lie
TTITLE2=Fancy
TTITLE3=For My Broken Heart
TTITLE4=Love Will Find It's Way To You
TTITLE5=They Asked About You
TTITLE6=Is There Life Out There
TTITLE7=Rumor Has It
TTITLE8=Walk On
TTITLE9=The Greatest Man I Never Knew
EXTD=
EXTT0=
EXTT1=
EXTT2=
EXTT3=
EXTT4=
EXTT5=
EXTT6=
EXTT7=
EXTT8=
EXTT9=
PLAYORDER=
